<svg width="29" height="29" viewBox="0 0 29 29" fill="none" xmlns="http://www.w3.org/2000/svg">
<path fill-rule="evenodd" clip-rule="evenodd" d="M19.379 1.5C19.9416 0.937589 20.7045 0.621643 21.5 0.621643C22.2955 0.621643 23.0584 0.937589 23.621 1.5L27.5 5.379C28.0624 5.94159 28.3784 6.70451 28.3784 7.5C28.3784 8.2955 28.0624 9.05842 27.5 9.621L25.121 12L17 3.879L19.379 1.5ZM14.879 6L1.379 19.5C0.816352 20.0625 0.50017 20.8254 0.5 21.621V25.5C0.5 26.2957 0.81607 27.0587 1.37868 27.6213C1.94129 28.1839 2.70435 28.5 3.5 28.5H7.379C8.17458 28.4998 8.93752 28.1837 9.5 27.621L23 14.121L14.879 6Z" fill="white"/>
</svg>
